<svg xmlns="http://www.w3.org/2000/svg" xmlns:xlink="http://www.w3.org/1999/xlink" width="500" zoomAndPan="magnify" viewBox="0 0 375 374.999991" height="500" preserveAspectRatio="xMidYMid meet" version="1.0"><defs><clipPath id="7ee19b0f26"><path d="M 99 37.5 L 186 37.5 L 186 284 L 99 284 Z M 99 37.5 " clip-rule="nonzero"/></clipPath><clipPath id="dfbaa1b114"><path d="M 34.558594 85.183594 L 186 85.183594 L 186 331.417969 L 34.558594 331.417969 Z M 34.558594 85.183594 " clip-rule="nonzero"/></clipPath><clipPath id="10c5503a88"><path d="M 185 37.5 L 273 37.5 L 273 284 L 185 284 Z M 185 37.5 " clip-rule="nonzero"/></clipPath><clipPath id="cbe7d996c0"><path d="M 185.445312 85.183594 L 337.386719 85.183594 L 337.386719 331.417969 L 185.445312 331.417969 Z M 185.445312 85.183594 " clip-rule="nonzero"/></clipPath><clipPath id="998c8c49fc"><path d="M 177.613281 127.175781 L 194.695312 127.175781 L 194.695312 331.417969 L 177.613281 331.417969 Z M 177.613281 127.175781 " clip-rule="nonzero"/></clipPath></defs><g clip-path="url(#7ee19b0f26)"><path fill="#052c50" d="M 99.53125 37.605469 C 99.53125 37.605469 174.75 43.636719 185.972656 133.082031 L 185.972656 283.375 C 185.972656 283.375 153.179688 235.0625 99.53125 237.125 L 99.53125 37.605469 " fill-opacity="1" fill-rule="nonzero"/></g><path fill="#ffffff" d="M 79.175781 51.582031 C 79.175781 51.582031 164.226562 51.582031 185.972656 133.082031 L 185.972656 297.347656 C 185.972656 297.347656 145.457031 249.039062 79.175781 251.097656 L 79.175781 51.582031 " fill-opacity="1" fill-rule="nonzero"/><path fill="#052c50" d="M 60.285156 58.136719 C 60.285156 58.136719 158.878906 58.136719 185.972656 133.082031 L 185.972656 303.902344 C 185.972656 303.902344 138.289062 255.59375 60.285156 257.652344 L 60.285156 58.136719 " fill-opacity="1" fill-rule="nonzero"/><path fill="#ffffff" d="M 46.828125 77.449219 C 46.828125 77.449219 137.3125 72.449219 185.972656 133.082031 L 185.972656 325.125 C 185.972656 325.125 133.183594 276.8125 46.828125 278.875 L 46.828125 77.449219 " fill-opacity="1" fill-rule="nonzero"/><g clip-path="url(#dfbaa1b114)"><path fill="#428cfc" d="M 185.984375 133.027344 L 185.972656 331.417969 C 185.972656 331.417969 128.527344 283.105469 34.558594 285.167969 L 34.558594 85.648438 C 34.558594 85.648438 46.5 85.78125 64.113281 87.726562 C 71.210938 88.511719 79.21875 89.59375 87.75 91.074219 C 120.785156 96.828125 161.46875 108.667969 185.984375 133.027344 " fill-opacity="1" fill-rule="nonzero"/></g><path fill="#052c50" d="M 87.75 91.074219 L 87.75 176.636719 L 75.933594 164.101562 L 64.113281 169.597656 L 64.113281 87.726562 C 71.210938 88.511719 79.21875 89.59375 87.75 91.074219 " fill-opacity="1" fill-rule="nonzero"/><g clip-path="url(#10c5503a88)"><path fill="#052c50" d="M 272.414062 37.5 C 272.414062 37.5 197.199219 43.53125 185.972656 132.972656 L 185.972656 283.265625 C 185.972656 283.265625 218.765625 234.957031 272.414062 237.015625 L 272.414062 37.5 " fill-opacity="1" fill-rule="nonzero"/></g><path fill="#ffffff" d="M 292.773438 51.472656 C 292.773438 51.472656 207.722656 51.472656 185.972656 132.972656 L 185.972656 297.238281 C 185.972656 297.238281 226.488281 248.929688 292.773438 250.992188 L 292.773438 51.472656 " fill-opacity="1" fill-rule="nonzero"/><path fill="#052c50" d="M 311.664062 58.027344 C 311.664062 58.027344 213.066406 58.027344 185.972656 132.972656 L 185.972656 303.796875 C 185.972656 303.796875 233.65625 255.484375 311.664062 257.546875 L 311.664062 58.027344 " fill-opacity="1" fill-rule="nonzero"/><path fill="#ffffff" d="M 325.117188 77.34375 C 325.117188 77.34375 234.632812 72.339844 185.972656 132.972656 L 185.972656 325.015625 C 185.972656 325.015625 238.761719 276.703125 325.117188 278.765625 L 325.117188 77.34375 " fill-opacity="1" fill-rule="nonzero"/><g clip-path="url(#cbe7d996c0)"><path fill="#052c50" d="M 337.390625 85.546875 C 337.390625 85.546875 232.5 86.671875 185.957031 132.917969 L 185.972656 331.3125 C 185.972656 331.3125 243.417969 283 337.390625 285.0625 L 337.390625 85.546875 " fill-opacity="1" fill-rule="nonzero"/></g><g clip-path="url(#998c8c49fc)"><path fill="#ffffff" d="M 189.453125 331.417969 L 182.492188 331.417969 C 179.9375 331.417969 177.863281 329.347656 177.863281 326.789062 L 177.863281 127.25 L 194.082031 127.25 L 194.082031 326.789062 C 194.082031 329.347656 192.011719 331.417969 189.453125 331.417969 " fill-opacity="1" fill-rule="nonzero"/></g><path fill="#ffffff" d="M 194.054688 127.3125 L 195.242188 124.734375 L 191.777344 127.25 Z M 194.054688 127.3125 " fill-opacity="1" fill-rule="nonzero"/><path fill="#ffffff" d="M 177.890625 127.3125 L 176.699219 124.734375 L 180.167969 127.25 Z M 177.890625 127.3125 " fill-opacity="1" fill-rule="nonzero"/><path fill="#ffffff" d="M 307.707031 159.066406 L 307.707031 165.242188 C 271.132812 168.621094 236.554688 181.886719 231.503906 183.890625 L 231.503906 177.300781 C 241.261719 173.601562 273.679688 162.121094 307.707031 159.066406 " fill-opacity="1" fill-rule="nonzero"/><path fill="#ffffff" d="M 307.707031 176.632812 L 307.707031 182.808594 C 271.132812 186.195312 236.554688 199.464844 231.503906 201.464844 L 231.503906 194.875 C 241.261719 191.171875 273.679688 179.6875 307.707031 176.632812 " fill-opacity="1" fill-rule="nonzero"/><path fill="#ffffff" d="M 307.707031 194.289062 L 307.707031 200.460938 C 271.132812 203.84375 236.554688 217.113281 231.503906 219.113281 L 231.503906 212.53125 C 241.261719 208.828125 273.679688 197.34375 307.707031 194.289062 " fill-opacity="1" fill-rule="nonzero"/></svg>